
<svg xmlns="http://www.w3.org/2000/svg" width="500" height="500" viewBox="0 0 500 500">
  <defs>
    <linearGradient id="logo-gradient" x1="0%" y1="0%" x2="100%" y2="0%">
      <stop offset="0%" style="stop-color:#2563eb" />
      <stop offset="100%" style="stop-color:#06b6d4" />
    </linearGradient>
    <filter id="glow" x="-50%" y="-50%" width="200%" height="200%">
      <feGaussianBlur in="SourceGraphic" stdDeviation="4" />
    </filter>
  </defs>
  
  <g transform="translate(250, 200)">
    <circle cx="0" cy="0" r="120" fill="url(#logo-gradient)" filter="url(#glow)" opacity="0.5" />
    <circle cx="0" cy="0" r="110" fill="url(#logo-gradient)" />
    <circle cx="0" cy="0" r="100" fill="white" />
    
    <path transform="translate(-60, -60) scale(5)" d="M2 5.5V4a2 2 0 0 1 2-2h16a2 2 0 0 1 2 2v1.5M5 5.5v13A2.5 2.5 0 0 0 7.5 21h9a2.5 2.5 0 0 0 2.5-2.5v-13M8 10h8m-8 4h8" stroke="url(#logo-gradient)" stroke-width="2" fill="none" />
  </g>
  
  <text x="250" y="380" font-family="Arial" font-size="48" font-weight="bold" fill="url(#logo-gradient)" text-anchor="middle">EchoFlow Labs</text>
</svg>
