
<svg xmlns="http://www.w3.org/2000/svg" width="200" height="40" viewBox="0 0 200 40">
  <defs>
    <linearGradient id="logo-gradient" x1="0%" y1="0%" x2="100%" y2="0%">
      <stop offset="0%" style="stop-color:#2563eb" />
      <stop offset="100%" style="stop-color:#06b6d4" />
    </linearGradient>
    <filter id="glow" x="-50%" y="-50%" width="200%" height="200%">
      <feGaussianBlur in="SourceGraphic" stdDeviation="2" />
    </filter>
  </defs>
  
  <g transform="translate(20, 20)">
    <circle cx="0" cy="0" r="16" fill="url(#logo-gradient)" filter="url(#glow)" opacity="0.5" />
    <circle cx="0" cy="0" r="15" fill="url(#logo-gradient)" />
    <circle cx="0" cy="0" r="14" fill="white" />
    
    <path transform="translate(-8, -8) scale(0.67)" d="M2 5.5V4a2 2 0 0 1 2-2h16a2 2 0 0 1 2 2v1.5M5 5.5v13A2.5 2.5 0 0 0 7.5 21h9a2.5 2.5 0 0 0 2.5-2.5v-13M8 10h8m-8 4h8" stroke="url(#logo-gradient)" stroke-width="2" fill="none" />
  </g>
  
  <text x="45" y="25" font-family="Arial" font-size="20" font-weight="bold" fill="url(#logo-gradient)">EchoFlow Labs</text>
</svg>
